<?xml version="1.0" encoding="UTF-8" standalone="no"?>
<!-- Created with Inkscape (http://www.inkscape.org/) -->

<svg
   width="80.003571mm"
   height="17.203539mm"
   viewBox="0 0 80.003571 17.203539"
   version="1.1"
   id="svg1"
   xmlns="http://www.w3.org/2000/svg"
   xmlns:svg="http://www.w3.org/2000/svg">
  <defs
     id="defs1" />
  <g
     id="layer1"
     transform="translate(-67.074122,-111.75483)">
    <path
       id="path1"
       fill="none"
       stroke="#000000"
       stroke-width="0.0846667"
       d="m 105.61051,112.36844 c 0.0643,-0.33613 0.29972,-0.51224 0.62484,-0.49192 1.86944,-0.0542 7.96375,-0.0415 9.18464,-0.007 0.44281,0.0965 0.40556,0.33359 0.42418,0.52917 -8.4e-4,1.00922 -0.0796,2.34272 -0.10837,2.8956 -0.0271,0.14986 -0.18373,0.4572 -0.60875,0.46059 -1.27254,-0.0246 -4.17831,0.007 -5.56261,0.007 -0.0288,0.42079 -0.11514,1.25307 -0.11176,1.66116 0.88223,0 2.75252,-0.072 3.96918,0.005 0.3048,0.0601 0.56388,0.16679 0.56134,0.60367 -0.003,0.70189 -0.0694,1.98205 -0.13547,2.75421 -0.17187,0.46228 -0.0957,0.57489 -0.63754,0.71544 0,0 -4.22571,0.008 -4.22571,0.008 0,0 -0.25485,2.16492 -0.25485,2.16492 0,0 5.57022,-0.0347 5.57022,-0.0347 0.55203,0.007 0.79841,0.0415 0.94742,0.42757 -0.003,1.2573 -0.0415,2.6797 -0.11938,3.70925 -0.12361,0.59182 -0.26162,0.66548 -0.6333,0.76538 -3.33164,0.006 -7.12047,-0.14054 -10.45465,0.0195 -0.22775,0.011 -0.65617,-0.0923 -0.72475,-0.50123 0.43011,-2.98958 1.95919,-13.87518 2.29532,-15.69128 z m 13.10641,-0.5097 c 0,0 2.28515,0.008 2.8177,0.0246 0,0 4.02591,4.80483 4.32817,5.11133 -0.0212,-0.92287 -0.20066,-3.90737 -0.18288,-4.69393 0.0161,-0.29548 0.12361,-0.3666 0.32681,-0.42756 0.16595,0.003 3.26475,-0.011 3.46541,-0.0102 0.16425,0.0195 0.38862,0.20235 0.4174,0.49022 0.25316,2.55778 1.43341,15.19513 1.43257,15.5592 0.011,0.29125 -0.20236,0.50292 -0.43096,0.58081 -0.58843,0.0677 -3.11827,0.0296 -3.80661,0.0567 -0.30734,-0.002 -0.65278,-0.17526 -0.66464,-0.58505 -0.0821,-1.14046 -0.19304,-3.66945 -0.19304,-3.66945 0,0 -3.06832,-3.91076 -3.71771,-4.98349 0,0 0.12107,6.59893 0.12107,8.67496 -0.009,0.40809 -0.16171,0.47836 -0.37338,0.55964 -0.44535,0.0229 -2.94809,0.0186 -3.89043,-0.0237 -0.36238,-0.0669 -0.52324,-0.28448 -0.5986,-0.52578 -0.011,-0.39455 0.30819,-14.52881 0.39709,-15.64811 0.0677,-0.46312 0.31665,-0.49445 0.55203,-0.49022 z m -36.253441,-0.009 c 0.127847,0 0.65024,-0.0525 0.606214,0.381 -0.154094,0.55457 -1.018541,2.92524 -1.148081,3.28507 -0.194733,0.32258 -0.51562,0.32004 -0.633307,0.32089 -5.127416,0.0533 -5.289129,-0.32597 -6.018956,1.37837 -0.379307,0.83058 -1.655235,3.95055 -2.325795,5.52958 -0.191347,0.96351 0.50038,0.87461 2.562861,0.8382 1.396154,-0.0127 2.163235,-0.008 2.828715,-0.008 0.268394,0.0593 0.357294,0.10752 0.2794,0.63246 -0.20574,0.95165 -0.85344,2.96672 -1.4478,3.86419 -0.21844,0.28109 -0.17018,0.3302 -0.623147,0.47413 -0.927101,0.0212 -5.414436,0.11007 -6.858851,-0.0432 -1.616287,-0.20743 -2.114127,-0.74337 -2.417234,-1.31826 -0.22098,-0.53679 -0.20828,-1.6256 0.112607,-2.62128 0.9017,-2.28092 3.591561,-7.87231 3.997115,-8.70205 2.490048,-4.68884 5.251029,-3.98018 11.086259,-4.01066 z m 2.116668,16.34068 c 1.076114,-3.75751 4.212169,-14.08177 4.822616,-15.77595 0.12446,-0.27178 0.19304,-0.44535 0.60198,-0.56727 -0.574887,0.0178 2.799081,-0.005 3.022601,-0.0118 0.723901,-0.0246 0.774701,0.14054 0.912708,0.40555 0.141393,0.56388 0.897467,3.22326 1.128607,3.85488 0.143933,0.11684 0.308187,0.13292 0.582507,0.011 0,0 2.549314,-3.45863 2.859195,-3.87265 0.127,-0.30565 0.621453,-0.38185 0.621453,-0.38185 0,0 3.547536,0.009 3.547536,0.009 0.19727,0.0406 0.36576,0.0754 0.3158,0.43265 -0.53848,3.38582 -2.08533,12.22333 -2.63821,15.32298 -0.0889,0.55542 -0.32004,0.84159 -0.645159,0.88731 -0.673947,0.0474 -2.949788,0.0195 -4.004735,0.0381 0,0 -0.483447,-0.13123 -0.358987,-0.63331 0.407247,-2.08534 1.867748,-8.88069 1.867748,-8.88069 -0.441114,0.49107 -1.732281,2.68732 -2.452795,3.18601 -0.469054,-0.0203 -1.613748,0.0389 -1.838114,-0.0627 -0.580814,-0.26332 -0.533401,-1.33774 -1.041401,-3.17924 -0.618067,2.4782 -1.550247,6.4008 -2.406228,8.99161 -0.13208,0.34036 -0.25908,0.53678 -0.57404,0.57319 0,0 -3.361268,0.003 -3.819315,-0.006 -0.20828,0.011 -0.485141,-0.004 -0.503767,-0.3412 z M 132.6412,111.83111 c 0.27517,-0.005 2.9718,-0.0271 3.45271,-0.0339 0.59859,0.0957 0.59436,0.25908 0.65363,0.67564 0.48175,2.77707 1.23698,7.79949 1.62052,9.8679 0.0728,0.61214 0.24553,0.91186 0.37761,1.09898 0.50462,0.6858 2.59842,0.43264 2.84565,0.1507 0.20997,-0.23876 0.32089,-0.43518 0.20913,-0.97112 -0.32682,-2.0464 -1.72128,-8.49885 -1.88468,-10.28193 0,-0.17949 0.0322,-0.28025 0.18965,-0.39624 0.51562,-0.0965 2.82956,-0.0804 3.26136,-0.0965 0.35814,0.005 0.67141,0.055 0.82381,0.52917 0.21929,0.90508 2.69663,11.53245 2.76098,11.9253 0.31665,2.07942 -0.29464,3.03277 -1.31826,3.72365 -0.0889,8.4e-4 -0.75015,0.54525 -3.02514,0.83566 -2.21827,0.14139 -3.76682,0.0195 -4.91575,-0.33444 -1.14216,-0.47667 -3.2385,-0.8636 -3.87858,-4.05977 -0.36322,-3.21056 -1.03463,-8.00015 -1.41224,-12.181 0,-0.37846 0.16171,-0.4047 0.2396,-0.45212 z m -51.588268,9.42087 c 0.359833,-0.96774 1.0668,-2.78469 1.3716,-3.65168 0.0762,-0.25823 0.331047,-0.3556 0.501227,-0.38523 0.524087,-0.011 2.245361,-0.0339 2.436708,-0.0271 0.13462,0.0466 0.35052,0.10414 0.245534,0.4047 -0.197274,0.79333 -0.929641,2.80332 -1.229361,3.87689 -0.136313,0.33782 -0.27432,0.45128 -0.62992,0.47583 -0.0025,0.003 -2.364742,0.0542 -2.364742,0.0542 -0.1778,-0.0423 -0.503766,-0.23114 -0.331046,-0.74761 z" />
    <path
       style="fill:#b10000;stroke-width:0.0808707"
       d="m 70.330067,128.45584 c -1.636891,-0.092 -2.593721,-0.52197 -2.960993,-1.33056 -0.184483,-0.40616 -0.199669,-1.33104 -0.03343,-2.03596 0.176682,-0.74919 1.598123,-3.94657 3.558004,-8.00335 0.879634,-1.82077 1.330189,-2.54361 2.050557,-3.28978 1.21482,-1.25833 2.284047,-1.67745 4.698662,-1.8418 1.602331,-0.10905 5.261348,-0.0134 5.31986,0.13909 0.05725,0.14919 -1.094664,3.39093 -1.251166,3.52107 -0.09283,0.0772 -0.772868,0.1137 -2.679856,0.14388 -2.858619,0.0452 -2.95244,0.063 -3.418288,0.64805 -0.205473,0.25805 -2.636158,5.88973 -2.76329,6.40231 -0.07003,0.28233 0.05304,0.59545 0.286326,0.72853 0.138123,0.0788 0.8502,0.11639 2.773695,0.14644 l 2.587865,0.0404 -0.01157,0.40435 c -0.0223,0.77948 -1.010682,3.40684 -1.523606,4.05011 l -0.188159,0.23597 -1.321844,0.0532 c -1.629797,0.0656 -3.833857,0.0604 -5.122772,-0.012 z"
       id="path7" />
    <path
       style="fill:#b10000;stroke-width:0.0808707"
       d="m 81.227404,121.81332 c -0.0556,-0.0565 -0.101088,-0.19118 -0.101088,-0.29919 0,-0.31155 1.376593,-3.91959 1.555762,-4.07764 0.138827,-0.12245 0.338364,-0.14152 1.481078,-0.14152 0.734258,0 1.341436,0.0337 1.367481,0.0758 0.07294,0.11802 -1.253774,4.1498 -1.425393,4.33166 -0.138215,0.14646 -0.276569,0.16419 -1.464692,0.18772 -0.982932,0.0195 -1.337418,1.6e-4 -1.413148,-0.0768 z"
       id="path8" />
    <path
       style="fill:#b10000;stroke-width:0.0808707"
       d="m 84.785718,128.40158 c -0.0556,-0.0224 -0.101088,-0.0931 -0.101088,-0.15702 0,-0.28219 3.407239,-11.54719 4.421719,-14.61907 0.247872,-0.75056 0.518927,-1.43291 0.602343,-1.51632 0.136143,-0.13615 0.306881,-0.15346 1.667994,-0.16913 1.89768,-0.0219 2.21563,-0.005 2.34289,0.12196 0.0561,0.0561 0.335878,0.91984 0.621736,1.91943 0.679617,2.37647 0.631114,2.26222 0.960367,2.26222 0.148275,0 0.326689,-0.0455 0.396472,-0.10109 0.06978,-0.0556 0.753274,-0.95629 1.51887,-2.00155 0.765595,-1.04525 1.465519,-1.96415 1.555387,-2.04199 0.145804,-0.12628 0.371674,-0.14152 2.097872,-0.14152 1.76772,0 1.93917,0.0122 1.98889,0.14152 0.0881,0.22918 -2.53846,15.59719 -2.72545,15.94659 -0.212351,0.39678 -0.322031,0.41386 -2.509182,0.39072 -1.823911,-0.0193 -2.05466,-0.0365 -2.132079,-0.15934 -0.104251,-0.16537 -0.02363,-0.6007 1.045348,-5.64397 0.419465,-1.97899 0.761853,-3.65301 0.760867,-3.72005 -0.0024,-0.1573 -0.130043,0.004 -1.088282,1.37422 -0.419917,0.60046 -0.922916,1.26462 -1.117774,1.47589 l -0.354288,0.38414 h -0.77587 c -0.426728,0 -0.863637,-0.0334 -0.970909,-0.0742 -0.283162,-0.10765 -0.417703,-0.45831 -0.748163,-1.94993 -0.281523,-1.27074 -0.330055,-1.44263 -0.385607,-1.36575 -0.01339,0.0185 -0.328089,1.25283 -0.69933,2.74287 -1.025921,4.11773 -1.689728,6.40974 -1.953487,6.74506 l -0.165052,0.20983 -2.076552,-0.006 c -1.142104,-0.004 -2.122044,-0.0247 -2.177642,-0.0472 z"
       id="path9" />
    <path
       style="fill:#b10000;stroke-width:0.0808707"
       d="m 103.56318,128.28812 c -0.0641,-0.0708 -0.11653,-0.22189 -0.11653,-0.33571 0,-0.23059 1.7516,-12.49007 2.06578,-14.45837 0.1637,-1.02561 0.23097,-1.27922 0.37004,-1.39502 0.15756,-0.1312 0.51181,-0.14152 4.85682,-0.14152 3.07612,0 4.74063,0.0288 4.84329,0.0837 0.14256,0.0763 0.15591,0.17485 0.15067,1.11197 -0.009,1.56292 -0.0902,2.27626 -0.27539,2.41167 -0.12497,0.0914 -0.70166,0.1127 -3.04847,0.1127 h -2.89435 l -0.0376,0.18195 c -0.0207,0.10008 -0.0598,0.50949 -0.0869,0.9098 l -0.0493,0.72784 h 2.09861 c 2.71197,0 2.479,-0.17088 2.40769,1.76596 -0.0527,1.43134 -0.1383,1.88628 -0.38485,2.04531 -0.0601,0.0388 -1.1097,0.0887 -2.33236,0.11096 l -2.22302,0.0404 -0.0972,0.8087 c -0.0535,0.44479 -0.11722,0.96599 -0.1417,1.15823 l -0.0445,0.34952 3.10838,-0.0223 c 2.9869,-0.0215 3.11527,-0.0161 3.28471,0.1357 0.17438,0.15629 0.17571,0.17741 0.11992,1.90489 -0.031,0.96076 -0.0884,1.88876 -0.12752,2.0622 -0.14235,0.63146 0.25115,0.59288 -5.8705,0.57558 -4.87778,-0.0138 -5.47157,-0.0291 -5.57569,-0.14419 z"
       id="path10" />
    <path
       style="fill:#b10000;stroke-width:0.0808707"
       d="m 118.19063,128.3737 c -0.39805,-0.16038 -0.39042,0.61361 -0.1072,-10.87655 0.0973,-3.94791 0.15709,-5.21333 0.25501,-5.39813 0.0674,-0.12715 0.23029,-0.14152 1.60404,-0.14152 h 1.52905 l 1.89379,2.24416 c 1.04159,1.23429 2.04296,2.40793 2.22528,2.60809 l 0.33149,0.36391 0.005,-0.28304 c 0.003,-0.15568 -0.0385,-1.27256 -0.0915,-2.48195 -0.0784,-1.79032 -0.0768,-2.22234 0.008,-2.32504 0.0891,-0.10734 0.37247,-0.12613 1.90184,-0.12613 1.60925,0 1.81044,0.0148 1.92424,0.14152 0.10076,0.11222 0.23684,1.31391 0.65706,5.80248 0.29149,3.11353 0.60387,6.51616 0.69417,7.56142 0.0903,1.04525 0.18454,2.05463 0.20941,2.24305 0.0385,0.29186 0.0151,0.37269 -0.15808,0.54588 l -0.20329,0.20329 h -2.02545 c -1.8594,0 -2.03765,-0.0122 -2.17434,-0.1489 -0.16051,-0.16051 -0.19988,-0.5285 -0.30649,-2.86483 l -0.0545,-1.19414 -0.89417,-1.15111 c -0.49179,-0.63312 -1.30452,-1.71519 -1.80606,-2.40462 -0.50154,-0.68942 -0.96751,-1.32628 -1.03548,-1.41523 -0.11114,-0.14545 -0.11824,0.29648 -0.0705,4.38515 0.0422,3.61224 0.0321,4.57227 -0.0493,4.67029 -0.0869,0.10476 -0.40312,0.12261 -2.09405,0.11826 -1.09541,-0.003 -2.07115,-0.0372 -2.16832,-0.0763 z"
       id="path11" />
    <path
       style="fill:#b10000;stroke-width:0.0808707"
       d="m 139.52049,128.77505 c -1.45781,-0.13998 -3.02119,-0.68469 -3.91705,-1.36478 -0.62314,-0.47305 -1.18877,-1.29886 -1.4677,-2.14284 -0.21173,-0.6406 -0.4541,-2.40181 -1.16395,-8.45768 -0.43731,-3.73081 -0.51825,-4.68339 -0.4091,-4.81491 0.0807,-0.0972 0.41778,-0.11821 1.89884,-0.11821 1.5987,0 1.82047,0.016 1.97659,0.1424 0.15516,0.12564 0.22828,0.46579 0.62146,2.89113 1.39646,8.61401 1.38142,8.54423 1.90247,8.82851 0.21859,0.11927 0.45445,0.14727 1.24037,0.14727 1.14295,0 1.42308,-0.0871 1.62098,-0.50417 0.16795,-0.35393 0.17239,-0.32364 -0.7019,-4.79287 -0.68373,-3.49509 -1.12126,-5.94237 -1.12126,-6.27166 0,-0.14242 0.0612,-0.22526 0.20744,-0.28087 0.11409,-0.0434 0.96666,-0.0789 1.89459,-0.0789 1.68152,0 1.68766,6.8e-4 1.83884,0.19284 0.15365,0.19533 0.34974,0.99109 1.96522,7.97511 1.06031,4.58396 1.07874,4.68134 1.02454,5.41373 -0.0627,0.8472 -0.24446,1.30645 -0.72525,1.83252 -0.6072,0.66437 -1.34104,0.99244 -2.85294,1.27546 -0.83032,0.15543 -2.84512,0.22267 -3.83219,0.12789 z"
       id="path12" />
  </g>
</svg>
